<?xml version="1.0" encoding="UTF-8"?>
<svg id="Layer_1" data-name="Layer 1" xmlns="http://www.w3.org/2000/svg" viewBox="0 0 80 80">
  <defs>
    <style>
      .cls-1 {
        fill: #96958d;
      }
    </style>
  </defs>
  <path class="cls-1" d="M62.85,25.75c-.1,.11-.19,.22-.3,.32C46.01,42.62,29.46,59.16,12.94,75.73c-1.38,1.38-1.66,.82-4.45-2.92-.03-.04-.07-.09-.11-.12-4.44-3.93-5.73-3.99-4.17-5.55,15.73-15.68,31.43-31.39,47.13-47.09,.94-.94,1.89-1.88,2.94-2.91,.5-.49,.15-1.33-.54-1.33h0c-14.27,0-28.53-.02-42.8,.03-2.57,0-1.13-1.42-1.25-8.01,0-.02,0-.04,0-.06-.3-3.49-.7-4.19,.83-4.19,21.64,.03,43.28,.02,64.92,0,.85,0,.99,.29,.99,1.05-.02,21.64-.02,43.28,0,64.92,0,.95-.34,1.07-1.16,1.06-3.14-.04-6.28-.07-9.42,.01-1.26,.03-1.67-.24-1.67-1.6,.06-14.22,.03-28.44,.03-42.66v-.1c-.68-.25-.69-.25-1.37-.5Z"/>
</svg>