<svg width="36" height="35" viewBox="0 0 36 35" fill="none" xmlns="http://www.w3.org/2000/svg">
<g id="Group 135">
<rect id="Rectangle 64" x="0.5" width="35" height="35" rx="8" fill="#17181D"/>
<g id="&#240;&#159;&#166;&#134; icon &#34;document&#34;">
<path id="Vector" d="M22.3584 7H13.5837C9.77221 7 7.5 9.27222 7.5 13.0837V21.8479C7.5 25.6699 9.77221 27.9421 13.5837 27.9421H22.3479C26.1594 27.9421 28.4316 25.6699 28.4316 21.8584V13.0837C28.4421 9.27222 26.1699 7 22.3584 7ZM21.8977 21.3977H14.0444C13.6151 21.3977 13.2591 21.0417 13.2591 20.6124C13.2591 20.183 13.6151 19.827 14.0444 19.827H21.8977C22.327 19.827 22.683 20.183 22.683 20.6124C22.683 21.0417 22.327 21.3977 21.8977 21.3977ZM21.8977 15.1151H14.0444C13.6151 15.1151 13.2591 14.759 13.2591 14.3297C13.2591 13.9004 13.6151 13.5444 14.0444 13.5444H21.8977C22.327 13.5444 22.683 13.9004 22.683 14.3297C22.683 14.759 22.327 15.1151 21.8977 15.1151Z" fill="#A6AABE"/>
</g>
</g>
</svg>
