<svg width="178" height="20" viewBox="0 0 178 20" fill="none" xmlns="http://www.w3.org/2000/svg">
<path d="M0 0.319336H21.743V3.65458H4.30757V8.00865H21.0968V11.3439H4.32295V16.0426H22.1994V19.383H0V0.319336Z" fill="white"/>
<path d="M25.9172 0.319336H41.2296C46.7679 0.319336 49.6294 2.4837 49.6294 6.27513C49.6294 9.44818 47.6858 11.5619 43.8244 12.1194L50.1165 19.383H44.768L38.8246 12.2512H30.2556V19.383H25.9172V0.319336ZM30.2351 8.93624H40.6604C43.7372 8.93624 45.1731 8.13537 45.1731 6.29541C45.1731 4.45545 43.7936 3.67486 40.6604 3.67486H30.2556L30.2351 8.93624Z" fill="white"/>
<path d="M56.1011 9.82327C56.1011 12.9203 59.1779 16.2302 66.0649 16.2302C68.0148 16.2366 69.9634 16.13 71.9006 15.9109V9.15419H76.1671V18.5821C73.9262 19.2208 70.0596 19.7023 66.0905 19.7023C55.9882 19.7023 51.6448 14.7096 51.6448 9.82327C51.6448 4.93698 56.1267 0 66.1521 0C69.4021 0.00157052 72.6398 0.396494 75.7928 1.17595V4.83053C72.6263 3.92428 69.3461 3.46524 66.0495 3.46704C58.9728 3.46704 56.1011 6.53871 56.1011 9.82327Z" fill="white"/>
<path d="M79.1772 9.85368C79.1772 4.6734 83.8797 0 92.7102 0C101.541 0 106.217 4.6734 106.217 9.85368C106.217 15.034 101.536 19.7023 92.7102 19.7023C83.8848 19.7023 79.1772 15.0289 79.1772 9.85368ZM101.741 9.85368C101.741 6.30554 98.7203 3.46704 92.6948 3.46704C86.6693 3.46704 83.6233 6.32582 83.6233 9.85368C83.6233 13.3815 86.6899 16.22 92.7102 16.22C98.7305 16.22 101.756 13.3765 101.756 9.85368H101.741Z" fill="white"/>
<path d="M109.5 19.383V0.319336H115.279L130.022 14.8971V0.319336H134.355V19.383H128.673L113.802 4.68354V19.383H109.5Z" fill="white"/>
<path d="M178 7.86167C170.308 7.81605 166.785 4.08037 166.785 0.572783C166.785 0.481545 166.811 0.395376 166.816 0.304138H161.724C161.724 0.390307 161.724 0.481545 161.724 0.572783C161.724 4.12092 163.739 7.69947 168.164 9.84355C163.739 11.9826 161.724 15.5713 161.724 19.1143C161.724 19.2005 161.724 19.2917 161.724 19.383H166.816C166.816 19.2917 166.785 19.2056 166.785 19.1143C166.785 15.6067 170.287 11.866 178 11.8204" fill="#FF5100"/>
<path d="M143.252 11.8204C150.944 11.866 154.467 15.6067 154.467 19.1143C154.467 19.2056 154.442 19.2917 154.436 19.383H159.529C159.529 19.2917 159.529 19.2005 159.529 19.1143C159.529 15.5662 157.513 11.9876 153.088 9.84355C157.513 7.69947 159.529 4.11585 159.529 0.572783C159.529 0.481545 159.529 0.390307 159.529 0.304138H154.436C154.436 0.395376 154.467 0.481545 154.467 0.572783C154.467 4.08037 150.965 7.81605 143.252 7.86167" fill="#FF5100"/>
</svg>
